<svg xmlns="http://www.w3.org/2000/svg" width="110" height="34" viewBox="0 0 110 34" shape-rendering="crispEdges"><style>@keyframes bl{0%{opacity:1}50%{opacity:0}}.bl{animation:bl 1s step-end infinite}@keyframes pop{from{opacity:0}to{opacity:1}}</style><defs></defs><path d="M4 4h102v4h4v22h-4v4h-102v-4h-4v-22h4z" fill="#000000" opacity=".4"/><path d="M4 0h102v4h4v22h-4v4h-102v-4h-4v-22h4z" fill="#1a1a2e"/><path d="M5 2h100v3h3v20h-3v3h-100v-3h-3v-20h3z" fill="#ffffff"/><rect x="4" y="3" width="102" height="2" fill="#ffffff"/><rect x="4" y="24" width="102" height="3" fill="#d1d1d1"/><path d="M14 8h8v2h-8zM14 10h2v2h-2zM22 10h2v2h-2zM14 12h2v2h-2zM22 12h2v2h-2zM14 14h2v2h-2zM22 14h2v2h-2zM14 16h2v2h-2zM22 16h2v2h-2zM14 18h2v2h-2zM22 18h2v2h-2zM14 20h8v2h-8zM28 8h6v2h-6zM30 10h2v2h-2zM30 12h2v2h-2zM30 14h2v2h-2zM30 16h2v2h-2zM30 18h2v2h-2zM28 20h6v2h-6zM40 8h8v2h-8zM38 10h2v2h-2zM38 12h2v2h-2zM40 14h6v2h-6zM46 16h2v2h-2zM46 18h2v2h-2zM38 20h8v2h-8zM52 8h6v2h-6zM50 10h2v2h-2zM58 10h2v2h-2zM50 12h2v2h-2zM50 14h2v2h-2zM50 16h2v2h-2zM50 18h2v2h-2zM58 18h2v2h-2zM52 20h6v2h-6zM64 8h6v2h-6zM62 10h2v2h-2zM70 10h2v2h-2zM62 12h2v2h-2zM70 12h2v2h-2zM62 14h2v2h-2zM70 14h2v2h-2zM62 16h2v2h-2zM70 16h2v2h-2zM62 18h2v2h-2zM70 18h2v2h-2zM64 20h6v2h-6zM74 8h8v2h-8zM74 10h2v2h-2zM82 10h2v2h-2zM74 12h2v2h-2zM82 12h2v2h-2zM74 14h8v2h-8zM74 16h2v2h-2zM78 16h2v2h-2zM74 18h2v2h-2zM80 18h2v2h-2zM74 20h2v2h-2zM82 20h2v2h-2zM86 8h8v2h-8zM86 10h2v2h-2zM94 10h2v2h-2zM86 12h2v2h-2zM94 12h2v2h-2zM86 14h2v2h-2zM94 14h2v2h-2zM86 16h2v2h-2zM94 16h2v2h-2zM86 18h2v2h-2zM94 18h2v2h-2zM86 20h8v2h-8z" fill="#1a1a2e"/><path d="M15 8h8v2h-8zM15 10h2v2h-2zM23 10h2v2h-2zM15 12h2v2h-2zM23 12h2v2h-2zM15 14h2v2h-2zM23 14h2v2h-2zM15 16h2v2h-2zM23 16h2v2h-2zM15 18h2v2h-2zM23 18h2v2h-2zM15 20h8v2h-8zM29 8h6v2h-6zM31 10h2v2h-2zM31 12h2v2h-2zM31 14h2v2h-2zM31 16h2v2h-2zM31 18h2v2h-2zM29 20h6v2h-6zM41 8h8v2h-8zM39 10h2v2h-2zM39 12h2v2h-2zM41 14h6v2h-6zM47 16h2v2h-2zM47 18h2v2h-2zM39 20h8v2h-8zM53 8h6v2h-6zM51 10h2v2h-2zM59 10h2v2h-2zM51 12h2v2h-2zM51 14h2v2h-2zM51 16h2v2h-2zM51 18h2v2h-2zM59 18h2v2h-2zM53 20h6v2h-6zM65 8h6v2h-6zM63 10h2v2h-2zM71 10h2v2h-2zM63 12h2v2h-2zM71 12h2v2h-2zM63 14h2v2h-2zM71 14h2v2h-2zM63 16h2v2h-2zM71 16h2v2h-2zM63 18h2v2h-2zM71 18h2v2h-2zM65 20h6v2h-6zM75 8h8v2h-8zM75 10h2v2h-2zM83 10h2v2h-2zM75 12h2v2h-2zM83 12h2v2h-2zM75 14h8v2h-8zM75 16h2v2h-2zM79 16h2v2h-2zM75 18h2v2h-2zM81 18h2v2h-2zM75 20h2v2h-2zM83 20h2v2h-2zM87 8h8v2h-8zM87 10h2v2h-2zM95 10h2v2h-2zM87 12h2v2h-2zM95 12h2v2h-2zM87 14h2v2h-2zM95 14h2v2h-2zM87 16h2v2h-2zM95 16h2v2h-2zM87 18h2v2h-2zM95 18h2v2h-2zM87 20h8v2h-8z" fill="#1a1a2e"/></svg>