<svg xmlns="http://www.w3.org/2000/svg" width="122" height="34" viewBox="0 0 122 34" shape-rendering="crispEdges"><style>@keyframes bl{0%{opacity:1}50%{opacity:0}}.bl{animation:bl 1s step-end infinite}@keyframes pop{from{opacity:0}to{opacity:1}}</style><defs></defs><path d="M4 4h114v4h4v22h-4v4h-114v-4h-4v-22h4z" fill="#000000" opacity=".4"/><path d="M4 0h114v4h4v22h-4v4h-114v-4h-4v-22h4z" fill="#1a1a2e"/><path d="M5 2h112v3h3v20h-3v3h-112v-3h-3v-20h3z" fill="#14b8a6"/><rect x="4" y="3" width="114" height="2" fill="#8adcd2"/><rect x="4" y="24" width="114" height="3" fill="#109788"/><path d="M14 8h10v2h-10zM18 10h2v2h-2zM18 12h2v2h-2zM18 14h2v2h-2zM18 16h2v2h-2zM18 18h2v2h-2zM18 20h2v2h-2zM26 8h10v2h-10zM26 10h2v2h-2zM26 12h2v2h-2zM26 14h8v2h-8zM26 16h2v2h-2zM26 18h2v2h-2zM26 20h10v2h-10zM38 8h2v2h-2zM38 10h2v2h-2zM38 12h2v2h-2zM38 14h2v2h-2zM38 16h2v2h-2zM38 18h2v2h-2zM38 20h10v2h-10zM50 8h10v2h-10zM50 10h2v2h-2zM50 12h2v2h-2zM50 14h8v2h-8zM50 16h2v2h-2zM50 18h2v2h-2zM50 20h10v2h-10zM64 8h6v2h-6zM62 10h2v2h-2zM70 10h2v2h-2zM62 12h2v2h-2zM62 14h2v2h-2zM66 14h6v2h-6zM62 16h2v2h-2zM70 16h2v2h-2zM62 18h2v2h-2zM70 18h2v2h-2zM64 20h8v2h-8zM74 8h8v2h-8zM74 10h2v2h-2zM82 10h2v2h-2zM74 12h2v2h-2zM82 12h2v2h-2zM74 14h8v2h-8zM74 16h2v2h-2zM78 16h2v2h-2zM74 18h2v2h-2zM80 18h2v2h-2zM74 20h2v2h-2zM82 20h2v2h-2zM88 8h6v2h-6zM86 10h2v2h-2zM94 10h2v2h-2zM86 12h2v2h-2zM94 12h2v2h-2zM86 14h10v2h-10zM86 16h2v2h-2zM94 16h2v2h-2zM86 18h2v2h-2zM94 18h2v2h-2zM86 20h2v2h-2zM94 20h2v2h-2zM98 8h2v2h-2zM106 8h2v2h-2zM98 10h4v2h-4zM104 10h4v2h-4zM98 12h2v2h-2zM102 12h2v2h-2zM106 12h2v2h-2zM98 14h2v2h-2zM102 14h2v2h-2zM106 14h2v2h-2zM98 16h2v2h-2zM106 16h2v2h-2zM98 18h2v2h-2zM106 18h2v2h-2zM98 20h2v2h-2zM106 20h2v2h-2z" fill="#1a1a2e"/><path d="M15 8h10v2h-10zM19 10h2v2h-2zM19 12h2v2h-2zM19 14h2v2h-2zM19 16h2v2h-2zM19 18h2v2h-2zM19 20h2v2h-2zM27 8h10v2h-10zM27 10h2v2h-2zM27 12h2v2h-2zM27 14h8v2h-8zM27 16h2v2h-2zM27 18h2v2h-2zM27 20h10v2h-10zM39 8h2v2h-2zM39 10h2v2h-2zM39 12h2v2h-2zM39 14h2v2h-2zM39 16h2v2h-2zM39 18h2v2h-2zM39 20h10v2h-10zM51 8h10v2h-10zM51 10h2v2h-2zM51 12h2v2h-2zM51 14h8v2h-8zM51 16h2v2h-2zM51 18h2v2h-2zM51 20h10v2h-10zM65 8h6v2h-6zM63 10h2v2h-2zM71 10h2v2h-2zM63 12h2v2h-2zM63 14h2v2h-2zM67 14h6v2h-6zM63 16h2v2h-2zM71 16h2v2h-2zM63 18h2v2h-2zM71 18h2v2h-2zM65 20h8v2h-8zM75 8h8v2h-8zM75 10h2v2h-2zM83 10h2v2h-2zM75 12h2v2h-2zM83 12h2v2h-2zM75 14h8v2h-8zM75 16h2v2h-2zM79 16h2v2h-2zM75 18h2v2h-2zM81 18h2v2h-2zM75 20h2v2h-2zM83 20h2v2h-2zM89 8h6v2h-6zM87 10h2v2h-2zM95 10h2v2h-2zM87 12h2v2h-2zM95 12h2v2h-2zM87 14h10v2h-10zM87 16h2v2h-2zM95 16h2v2h-2zM87 18h2v2h-2zM95 18h2v2h-2zM87 20h2v2h-2zM95 20h2v2h-2zM99 8h2v2h-2zM107 8h2v2h-2zM99 10h4v2h-4zM105 10h4v2h-4zM99 12h2v2h-2zM103 12h2v2h-2zM107 12h2v2h-2zM99 14h2v2h-2zM103 14h2v2h-2zM107 14h2v2h-2zM99 16h2v2h-2zM107 16h2v2h-2zM99 18h2v2h-2zM107 18h2v2h-2zM99 20h2v2h-2zM107 20h2v2h-2z" fill="#1a1a2e"/></svg>